<svg width="16" height="16" viewBox="0 0 16 16" fill="none" xmlns="http://www.w3.org/2000/svg">
<path fill-rule="evenodd" clip-rule="evenodd" d="M6.31739 -3.03701e-05L7.25 -3.02509e-05C7.66421 -3.02509e-05 8 0.335755 8 0.749969C8 1.16418 7.66421 1.49997 7.25 1.49997L6.35 1.49997C5.35753 1.49997 4.65829 1.50055 4.11228 1.54516C3.57503 1.58906 3.25252 1.67181 3.00152 1.7997C2.48408 2.06335 2.06338 2.48405 1.79973 3.0015C1.67184 3.25249 1.58909 3.575 1.54519 4.11225C1.50058 4.65826 1.5 5.3575 1.5 6.34997V9.64997C1.5 10.6424 1.50058 11.3417 1.54519 11.8877C1.58909 12.4249 1.67184 12.7474 1.79973 12.9984C2.06338 13.5159 2.48408 13.9366 3.00152 14.2002C3.25252 14.3281 3.57503 14.4109 4.11228 14.4548C4.65829 14.4994 5.35753 14.5 6.35 14.5H7.24536C7.65957 14.5 7.99536 14.8358 7.99536 15.25C7.99536 15.6642 7.65958 16 7.24536 16H6.31737C5.36493 16 4.60439 16 3.99013 15.9498C3.36012 15.8983 2.81824 15.7903 2.32054 15.5367C1.52085 15.1293 0.870683 14.4791 0.463221 13.6794C0.209632 13.1817 0.101647 12.6398 0.050173 12.0098C-1.43349e-05 11.3956 -6.3485e-06 10.635 1.48407e-07 9.68258V6.31736C-6.3485e-06 5.36491 -1.24276e-05 4.60437 0.0501749 3.9901C0.101649 3.36009 0.20963 2.81821 0.463219 2.32051C0.870681 1.52082 1.52085 0.870653 2.32054 0.463191C2.81823 0.209602 3.36012 0.101619 3.99013 0.0501448C4.60439 -4.24683e-05 5.36494 -3.6867e-05 6.31739 -3.03701e-05ZM12.2197 4.96964C12.5126 4.67675 12.9874 4.67675 13.2803 4.96964L15.7803 7.46962C15.921 7.61027 16 7.80104 16 7.99995C16 8.19886 15.921 8.38963 15.7803 8.53028L13.2803 11.0303C12.9874 11.3232 12.5126 11.3232 12.2197 11.0303C11.9268 10.7374 11.9268 10.2625 12.2197 9.96964L13.4393 8.74996L6.75 8.74997C6.33579 8.74997 6 8.41418 6 7.99997C6 7.58576 6.33578 7.24997 6.75 7.24997L13.4393 7.24996L12.2197 6.0303C11.9268 5.73741 11.9268 5.26254 12.2197 4.96964Z" fill="#71AAEB"/>
</svg>
