<svg width="367" height="48" viewBox="0 0 367 48" fill="none" xmlns="http://www.w3.org/2000/svg">
<path d="M72.608 11.8C75.872 11.8 78.44 12.58 80.312 14.14C82.184 15.7 83.12 17.848 83.12 20.584C83.12 23.32 82.184 25.468 80.312 27.028C78.44 28.588 75.872 29.368 72.608 29.368H66.38V37H62.78V11.8H72.608ZM72.5 26.236C74.78 26.236 76.52 25.756 77.72 24.796C78.92 23.812 79.52 22.408 79.52 20.584C79.52 18.76 78.92 17.368 77.72 16.408C76.52 15.424 74.78 14.932 72.5 14.932H66.38V26.236H72.5ZM88.2565 10.288H91.7125V37H88.2565V10.288ZM105.259 17.74C107.899 17.74 109.915 18.388 111.307 19.684C112.723 20.98 113.431 22.912 113.431 25.48V37H110.155V34.48C109.579 35.368 108.751 36.052 107.671 36.532C106.615 36.988 105.355 37.216 103.891 37.216C101.755 37.216 100.039 36.7 98.7432 35.668C97.4712 34.636 96.8352 33.28 96.8352 31.6C96.8352 29.92 97.4472 28.576 98.6712 27.568C99.8952 26.536 101.839 26.02 104.503 26.02H109.975V25.336C109.975 23.848 109.543 22.708 108.679 21.916C107.815 21.124 106.543 20.728 104.863 20.728C103.735 20.728 102.631 20.92 101.551 21.304C100.471 21.664 99.5592 22.156 98.8152 22.78L97.3752 20.188C98.3592 19.396 99.5352 18.796 100.903 18.388C102.271 17.956 103.723 17.74 105.259 17.74ZM104.467 34.552C105.787 34.552 106.927 34.264 107.887 33.688C108.847 33.088 109.543 32.248 109.975 31.168V28.504H104.647C101.719 28.504 100.255 29.488 100.255 31.456C100.255 32.416 100.627 33.172 101.371 33.724C102.115 34.276 103.147 34.552 104.467 34.552ZM136.359 17.92L127.107 38.908C126.291 40.852 125.331 42.22 124.227 43.012C123.147 43.804 121.839 44.2 120.303 44.2C119.367 44.2 118.455 44.044 117.567 43.732C116.703 43.444 115.983 43.012 115.407 42.436L116.883 39.844C117.867 40.78 119.007 41.248 120.303 41.248C121.143 41.248 121.839 41.02 122.391 40.564C122.967 40.132 123.483 39.376 123.939 38.296L124.551 36.964L116.127 17.92H119.727L126.387 33.184L132.975 17.92H136.359ZM139.585 10.288H143.041V37H139.585V10.288ZM149.639 17.92H153.095V37H149.639V17.92ZM151.367 14.248C150.695 14.248 150.131 14.032 149.675 13.6C149.243 13.168 149.027 12.64 149.027 12.016C149.027 11.392 149.243 10.864 149.675 10.432C150.131 9.976 150.695 9.748 151.367 9.748C152.039 9.748 152.591 9.964 153.023 10.396C153.479 10.804 153.707 11.32 153.707 11.944C153.707 12.592 153.479 13.144 153.023 13.6C152.591 14.032 152.039 14.248 151.367 14.248ZM165.166 37.216C163.606 37.216 162.106 37.012 160.666 36.604C159.226 36.172 158.098 35.632 157.282 34.984L158.722 32.248C159.562 32.848 160.582 33.328 161.782 33.688C162.982 34.048 164.194 34.228 165.418 34.228C168.442 34.228 169.954 33.364 169.954 31.636C169.954 31.06 169.75 30.604 169.342 30.268C168.934 29.932 168.418 29.692 167.794 29.548C167.194 29.38 166.33 29.2 165.202 29.008C163.666 28.768 162.406 28.492 161.422 28.18C160.462 27.868 159.634 27.34 158.938 26.596C158.242 25.852 157.894 24.808 157.894 23.464C157.894 21.736 158.614 20.356 160.054 19.324C161.494 18.268 163.426 17.74 165.85 17.74C167.122 17.74 168.394 17.896 169.666 18.208C170.938 18.52 171.982 18.94 172.798 19.468L171.322 22.204C169.762 21.196 167.926 20.692 165.814 20.692C164.35 20.692 163.234 20.932 162.466 21.412C161.698 21.892 161.314 22.528 161.314 23.32C161.314 23.944 161.53 24.436 161.962 24.796C162.394 25.156 162.922 25.42 163.546 25.588C164.194 25.756 165.094 25.948 166.246 26.164C167.782 26.428 169.018 26.716 169.954 27.028C170.914 27.316 171.73 27.82 172.402 28.54C173.074 29.26 173.41 30.268 173.41 31.564C173.41 33.292 172.666 34.672 171.178 35.704C169.714 36.712 167.71 37.216 165.166 37.216ZM188.457 35.884C187.953 36.316 187.329 36.652 186.585 36.892C185.841 37.108 185.073 37.216 184.281 37.216C182.361 37.216 180.873 36.7 179.817 35.668C178.761 34.636 178.233 33.16 178.233 31.24V20.764H174.993V17.92H178.233V13.744H181.689V17.92H187.161V20.764H181.689V31.096C181.689 32.128 181.941 32.92 182.445 33.472C182.973 34.024 183.717 34.3 184.677 34.3C185.733 34.3 186.633 34 187.377 33.4L188.457 35.884ZM210.151 37.288C208.255 37.288 206.419 37 204.643 36.424C202.891 35.824 201.511 35.056 200.503 34.12L201.835 31.312C202.795 32.176 204.019 32.884 205.507 33.436C207.019 33.964 208.567 34.228 210.151 34.228C212.239 34.228 213.799 33.88 214.831 33.184C215.863 32.464 216.379 31.516 216.379 30.34C216.379 29.476 216.091 28.78 215.515 28.252C214.963 27.7 214.267 27.28 213.427 26.992C212.611 26.704 211.447 26.38 209.935 26.02C208.039 25.564 206.503 25.108 205.327 24.652C204.175 24.196 203.179 23.5 202.339 22.564C201.523 21.604 201.115 20.32 201.115 18.712C201.115 17.368 201.463 16.156 202.159 15.076C202.879 13.996 203.959 13.132 205.399 12.484C206.839 11.836 208.627 11.512 210.763 11.512C212.251 11.512 213.715 11.704 215.155 12.088C216.595 12.472 217.831 13.024 218.863 13.744L217.675 16.624C216.619 15.952 215.491 15.448 214.291 15.112C213.091 14.752 211.915 14.572 210.763 14.572C208.723 14.572 207.187 14.944 206.155 15.688C205.147 16.432 204.643 17.392 204.643 18.568C204.643 19.432 204.931 20.14 205.507 20.692C206.083 21.22 206.791 21.64 207.631 21.952C208.495 22.24 209.659 22.552 211.123 22.888C213.019 23.344 214.543 23.8 215.695 24.256C216.847 24.712 217.831 25.408 218.647 26.344C219.487 27.28 219.907 28.54 219.907 30.124C219.907 31.444 219.547 32.656 218.827 33.76C218.107 34.84 217.015 35.704 215.551 36.352C214.087 36.976 212.287 37.288 210.151 37.288ZM234.851 17.74C237.275 17.74 239.195 18.448 240.611 19.864C242.051 21.256 242.771 23.308 242.771 26.02V37H239.315V26.416C239.315 24.568 238.871 23.176 237.983 22.24C237.095 21.304 235.823 20.836 234.167 20.836C232.295 20.836 230.819 21.388 229.739 22.492C228.659 23.572 228.119 25.132 228.119 27.172V37H224.663V10.288H228.119V20.62C228.839 19.708 229.775 19 230.927 18.496C232.103 17.992 233.411 17.74 234.851 17.74ZM266.951 17.92V37H263.675V34.12C262.979 35.104 262.055 35.872 260.903 36.424C259.775 36.952 258.539 37.216 257.195 37.216C254.651 37.216 252.647 36.52 251.183 35.128C249.719 33.712 248.987 31.636 248.987 28.9V17.92H252.443V28.504C252.443 30.352 252.887 31.756 253.775 32.716C254.663 33.652 255.935 34.12 257.591 34.12C259.415 34.12 260.855 33.568 261.911 32.464C262.967 31.36 263.495 29.8 263.495 27.784V17.92H266.951ZM280.514 12.916C278.45 12.916 277.418 14.032 277.418 16.264V17.92H282.962V20.764H277.49V37H274.034V20.764H270.794V17.92H274.034V16.228C274.034 14.332 274.586 12.832 275.69 11.728C276.794 10.624 278.342 10.072 280.334 10.072C281.102 10.072 281.822 10.168 282.494 10.36C283.166 10.552 283.742 10.828 284.222 11.188L283.178 13.816C282.386 13.216 281.498 12.916 280.514 12.916ZM293.205 12.916C291.141 12.916 290.109 14.032 290.109 16.264V17.92H295.653V20.764H290.181V37H286.725V20.764H283.485V17.92H286.725V16.228C286.725 14.332 287.277 12.832 288.381 11.728C289.485 10.624 291.033 10.072 293.025 10.072C293.793 10.072 294.513 10.168 295.185 10.36C295.857 10.552 296.433 10.828 296.913 11.188L295.869 13.816C295.077 13.216 294.189 12.916 293.205 12.916ZM298.913 10.288H302.369V37H298.913V10.288ZM326.211 27.568C326.211 27.832 326.187 28.18 326.139 28.612H310.659C310.875 30.292 311.607 31.648 312.855 32.68C314.127 33.688 315.699 34.192 317.571 34.192C319.851 34.192 321.687 33.424 323.079 31.888L324.987 34.12C324.123 35.128 323.043 35.896 321.747 36.424C320.475 36.952 319.047 37.216 317.463 37.216C315.447 37.216 313.659 36.808 312.099 35.992C310.539 35.152 309.327 33.988 308.463 32.5C307.623 31.012 307.203 29.332 307.203 27.46C307.203 25.612 307.611 23.944 308.427 22.456C309.267 20.968 310.407 19.816 311.847 19C313.311 18.16 314.955 17.74 316.779 17.74C318.603 17.74 320.223 18.16 321.639 19C323.079 19.816 324.195 20.968 324.987 22.456C325.803 23.944 326.211 25.648 326.211 27.568ZM316.779 20.656C315.123 20.656 313.731 21.16 312.603 22.168C311.499 23.176 310.851 24.496 310.659 26.128H322.899C322.707 24.52 322.047 23.212 320.919 22.204C319.815 21.172 318.435 20.656 316.779 20.656Z" fill="#E1E3E6"/>
<path d="M0 23.04C0 12.1788 2.38419e-07 6.74826 3.37413 3.37413C6.74826 0 12.1788 0 23.04 0H24.96C35.8212 0 41.2517 0 44.6259 3.37413C48 6.74826 48 12.1788 48 23.04V24.96C48 35.8212 48 41.2517 44.6259 44.6259C41.2517 48 35.8212 48 24.96 48H23.04C12.1788 48 6.74826 48 3.37413 44.6259C2.38419e-07 41.2517 0 35.8212 0 24.96V23.04Z" fill="#0077FF"/>
<path d="M25.6252 34.7C14.8154 34.7 8.25697 27.1861 8 14.7H13.4749C13.6456 23.872 17.8107 27.7586 21.0037 28.5578V14.7H26.2504V22.6155C29.3301 22.2735 32.5537 18.6731 33.6372 14.7H38.8015C37.975 19.5857 34.4656 23.1861 31.9861 24.6712C34.4676 25.872 38.4601 29.0151 40 34.7H34.3237C33.1252 30.8998 30.1893 27.9565 26.2523 27.5569V34.7H25.6252Z" fill="white"/>
</svg>
