<svg width="16" height="16" viewBox="0 0 16 16" fill="none" xmlns="http://www.w3.org/2000/svg">
<path fill-rule="evenodd" clip-rule="evenodd" d="M7.37074 1.5449C7.2307 1.50633 7.0685 1.50001 6.462 1.50001H3.95C3.37757 1.50001 2.99336 1.50059 2.69748 1.52477C2.41036 1.54823 2.27307 1.59011 2.18251 1.63625C1.94731 1.7561 1.75608 1.94732 1.63624 2.18252C1.5901 2.27308 1.54822 2.41037 1.52476 2.69749C1.50058 2.99337 1.5 3.37759 1.5 3.95001V12.0544C1.5 12.6268 1.50058 13.011 1.52476 13.3069C1.54822 13.594 1.5901 13.7313 1.63624 13.8218C1.75608 14.057 1.94731 14.2483 2.18251 14.3681C2.27307 14.4143 2.41036 14.4561 2.69748 14.4796C2.99336 14.5038 3.37757 14.5044 3.95 14.5044H12.05C12.6224 14.5044 13.0066 14.5038 13.3025 14.4796C13.5896 14.4561 13.7269 14.4143 13.8175 14.3681C14.0527 14.2483 14.2439 14.057 14.3638 13.8218C14.4099 13.7313 14.4518 13.594 14.4752 13.3069C14.4994 13.011 14.5 12.6268 14.5 12.0544V6.45001C14.5 5.87758 14.4994 5.49337 14.4752 5.19749C14.4518 4.91037 14.4099 4.77308 14.3638 4.68252C14.2439 4.44732 14.0527 4.25609 13.8175 4.13625C13.7269 4.09011 13.5896 4.04823 13.3025 4.02477C13.0066 4.0006 12.6224 4.00001 12.05 4.00001C11.6044 4.00001 11.1588 3.99919 10.7132 4.00009C10.4882 4.00054 10.2476 4.00102 10.0158 3.93716C9.81373 3.88148 9.62327 3.78994 9.45353 3.6669C9.25887 3.52579 9.10894 3.33761 8.96874 3.16164C8.77134 2.91389 8.57302 2.66687 8.37513 2.41951C7.99625 1.94591 7.88999 1.8232 7.77239 1.73795C7.65115 1.65006 7.51511 1.58467 7.37074 1.5449ZM6.54616 -2.53486e-05C7.02875 -0.000345664 7.4084 -0.000597671 7.76913 0.0987756C8.08673 0.186271 8.38603 0.330121 8.65276 0.523471C8.9557 0.743069 9.19267 1.03969 9.49389 1.41673C9.69752 1.67162 9.90146 1.92625 10.1053 2.181C10.1981 2.29705 10.2505 2.36215 10.2925 2.40941C10.3456 2.46919 10.3982 2.49262 10.4737 2.49652C10.5368 2.49978 10.6204 2.50001 10.769 2.50001L12.0804 2.50001C12.6146 2.5 13.0604 2.49999 13.4247 2.52975C13.8046 2.56079 14.1612 2.6279 14.4985 2.79974C15.0159 3.0634 15.4366 3.48409 15.7003 4.00154C15.8721 4.3388 15.9392 4.69546 15.9703 5.07534C16 5.43957 16 5.88541 16 6.41956V12.0848C16 12.619 16 13.0648 15.9703 13.429C15.9392 13.8089 15.8721 14.1656 15.7003 14.5028C15.4366 15.0203 15.0159 15.441 14.4985 15.7046C14.1612 15.8765 13.8046 15.9436 13.4247 15.9746C13.0604 16.0044 12.6146 16.0044 12.0805 16.0044H3.91955C3.3854 16.0044 2.93956 16.0044 2.57533 15.9746C2.19545 15.9436 1.83879 15.8765 1.50153 15.7046C0.984081 15.441 0.563385 15.0203 0.299733 14.5028C0.127889 14.1656 0.0607778 13.8089 0.02974 13.429C-1.90884e-05 13.0648 -1.02672e-05 12.6189 4.02008e-07 12.0848V3.91958C-1.02672e-05 3.38542 -1.90884e-05 2.93958 0.02974 2.57534C0.0607778 2.19546 0.127889 1.8388 0.299733 1.50154C0.563385 0.984092 0.984081 0.563396 1.50153 0.299744C1.83879 0.1279 2.19545 0.0607887 2.57533 0.0297509C2.93956 -8.1826e-06 3.38541 6.3904e-07 3.91957 1.13083e-05L6.462 1.16659e-05C6.4904 1.16659e-05 6.51845 -6.93075e-06 6.54616 -2.53486e-05Z" fill="#99A2AD"/>
<path d="M3.75 3.00001H6.75C7.16421 3.00001 7.5 3.3358 7.5 3.75001C7.5 4.16423 7.16421 4.50001 6.75 4.50001H3.75C3.33579 4.50001 3 4.16423 3 3.75001C3 3.3358 3.33579 3.00001 3.75 3.00001Z" fill="#99A2AD"/>
<path d="M7.24561 6.49708C7.24561 6.08287 7.58139 5.74708 7.99561 5.74708C8.40982 5.74708 8.74561 6.08287 8.74561 6.49708V8.49708H10.75C11.1642 8.49708 11.5 8.83287 11.5 9.24708C11.5 9.66129 11.1642 9.99708 10.75 9.99708H8.74561V11.9971C8.74561 12.4113 8.40982 12.7471 7.99561 12.7471C7.58139 12.7471 7.24561 12.4113 7.24561 11.9971V9.99708H5.25C4.83579 9.99708 4.5 9.66129 4.5 9.24708C4.5 8.83287 4.83579 8.49708 5.25 8.49708H7.24561L7.24561 6.49708Z" fill="#99A2AD"/>
</svg>
